<svg width="604" height="431" viewBox="0 0 604 431" fill="none" xmlns="http://www.w3.org/2000/svg">
<path d="M7.55377 430.576C32.4653 421.25 57.0425 411.049 81.1519 399.551C88.5051 396.033 94.6104 391.334 99.6462 384.865C104.236 378.962 108.693 372.988 113.149 366.967C122.129 354.831 128.947 341.727 132.78 326.568C137.08 309.592 142.851 293.017 148.177 276.324C150.806 268.131 153.926 260.103 157.001 251.532C154.371 249.289 152.076 246.881 149.425 245.157C145.347 242.512 141.024 240.269 136.768 237.908C122.976 230.258 114.041 218.712 111.166 202.302C109.785 194.44 108.403 186.554 110.007 178.573C110.921 178.29 111.5 177.912 112.035 177.959C114.419 178.148 116.826 178.29 119.188 178.738C137.838 182.304 151.274 192.527 156.711 212.503C158.092 217.579 158.872 222.844 160.009 228.015C160.232 229.007 160.789 229.88 161.591 231.722C162.839 226.74 163.752 222.868 164.777 218.996C167.518 208.559 166.315 199.044 160.12 190.025C157.513 186.247 155.708 181.312 155.062 176.661C153.792 167.594 154.795 158.409 156.911 149.508C161.101 131.941 167.874 115.389 174.982 99.0033C175.606 97.5866 176.564 96.3352 177.768 94.3283C178.325 96.6422 178.859 98.0352 178.993 99.4755C181.4 123.535 183.962 147.595 186.012 171.702C187.215 185.964 186.681 200.201 180.464 213.447C177.433 219.916 174.136 226.221 170.972 232.619C169.167 236.303 167.406 240.033 165.624 243.74C165.936 244.024 166.226 244.33 166.537 244.614C170.838 241.355 175.138 238.097 179.439 234.839C184.14 231.273 187.26 226.41 189.8 221.05C191.159 218.216 192.563 215.407 193.766 212.479C201.387 193.661 216.583 185.42 233.897 180.226C234.766 179.966 235.791 180.202 237.529 180.202C235.367 183.768 233.607 186.79 231.713 189.741C225.63 199.28 220.661 209.386 216.739 220.129C215.291 224.072 213.553 227.921 211.704 231.675C208.918 237.365 204.662 241.662 198.869 243.48C193.343 245.228 187.616 246.621 181.868 247.187C171.172 248.226 163.797 253.846 160.187 264.258C154.193 281.589 148.712 299.109 143.052 316.581C142.161 319.32 141.448 322.13 140.49 325.412C146.506 321.775 152.7 314.456 155.552 308.01C160.521 296.818 166.203 286.122 174.403 277.126C178.035 273.136 182.113 269.878 188.04 267.989C186.792 278.827 186.502 289.239 183.205 299.061C178.57 312.85 169.746 321.846 155.664 324.349C154.037 324.632 152.232 325.813 151.118 327.135C145.503 333.746 139.732 340.239 134.696 347.346C126.652 358.727 119.165 370.533 111.456 382.149C110.475 383.637 109.473 385.077 107.757 387.627C110.587 386.659 112.28 386.187 113.907 385.549C129.304 379.505 144.79 373.72 160.031 367.274C173.4 361.631 186.859 355.988 199.649 349.046C218.009 339.082 235.746 327.867 253.839 317.384C257.984 314.975 261.237 311.93 264.2 308.057C273.559 295.897 282.828 283.596 292.967 272.192C312.508 250.21 335.816 233.28 360.482 218.405C362.799 217.012 365.117 215.596 367.412 214.179C368.994 216.233 370.732 218.264 372.67 220.153C371.712 220.719 370.754 221.31 369.818 222.041C364.671 226.008 358.789 228.936 353.285 232.407C325.298 250.068 300.81 272.05 280.466 299.109C279.553 300.313 278.862 301.706 277.592 303.807C279.441 303.193 280.377 302.957 281.246 302.556C307.606 290.679 335.303 285.91 363.78 285.178C385.082 284.635 406.227 286.902 427.351 289.027C443.706 290.656 459.994 292.757 476.305 294.741C477.018 294.835 477.686 294.835 478.333 294.788L474.745 302.249C450.725 299.77 425.858 297.007 400.947 294.646C378.731 292.568 356.56 292.71 334.389 295.827C311.461 299.038 289.803 306.098 269.526 317.714C250.519 328.623 231.78 340.027 212.929 351.219C212.171 351.667 211.548 352.352 210.166 353.509C218.21 355.941 225.652 357.735 232.738 360.474C241.138 363.733 249.271 362.859 257.449 360.214C263.198 358.349 268.924 356.437 274.539 354.217C283.475 350.723 292.41 349.684 301.523 353.249C306.202 355.091 310.882 356.909 315.516 358.845C316.631 359.317 317.566 360.333 318.569 361.088C308.386 367.251 298.604 373.177 287.953 379.623C299.54 384.558 310.347 388.123 320.196 393.648C330.089 399.22 338.801 397.662 347.982 392.845C359.702 386.706 371.445 386.683 383.21 392.987C389.917 396.599 396.178 400.779 401.749 406.634C391.477 414.591 380.425 419.313 368.66 422.643C374.319 430.033 375.99 430.6 383.633 427.932C384.591 427.601 385.549 427.294 386.485 426.963C399.899 422.076 412.088 424.508 423.184 433.74C431.83 440.941 438.18 450.15 443.862 459.972C445.065 462.026 446.046 464.222 447.405 466.89C443.082 467.693 439.539 468.307 436.019 469.015C425.724 471.069 415.363 471.919 404.913 470.786C394.44 469.653 386.04 465.426 382.341 453.951C381.45 451.165 379.957 448.568 378.798 445.876C375.322 437.754 370.331 431.048 362.978 426.444C352.639 419.975 342.411 413.316 332.005 407.012C328.529 404.911 324.608 403.588 320.886 401.936C320.664 402.337 320.463 402.738 320.24 403.14C328.886 410.625 335.793 420.14 345.642 426.255C355.535 432.394 361.529 441.72 363.223 453.786C364.716 464.505 366.053 475.248 367.078 486.015C367.545 490.997 367.167 496.074 367.167 502C361.552 498.718 358.076 494.397 355.179 489.581C345.13 472.84 339.158 454.518 336.997 434.802C336.707 432.229 336.373 430.009 334.434 427.979C324.608 417.661 314.959 407.154 305.2 396.765C303.818 395.301 302.236 393.766 300.476 392.987C288.8 387.958 277.035 383.117 265.292 378.301C264.356 377.923 263.198 378.112 261.259 377.97C266.54 384.204 271.286 389.634 275.809 395.254C282.249 403.305 287.374 412.088 288.332 422.95C289.491 436.007 288.399 448.804 284.321 461.247C283.809 462.782 283.051 464.222 282.405 465.686C281.982 454.754 276.612 446.702 270.328 439.123C269.281 437.848 268.256 436.526 267.209 435.251C259.811 426.255 253.059 416.858 248.647 405.69C244.325 394.781 242.007 383.495 241.584 371.831C240.893 371.406 240.403 370.958 239.846 370.792C227.613 366.826 215.402 362.764 203.08 359.081C201.253 358.538 198.824 359.459 196.908 360.285C183.561 365.999 170.325 372.044 156.934 377.64C133.671 387.344 110.253 396.67 86.9899 406.422C64.106 416.008 41.3336 425.948 18.4943 435.652C13.5476 437.754 8.46735 439.525 3.09729 441.579C1.98322 438.769 1.06958 436.526 6.10352e-05 433.787C2.78534 432.607 5.14728 431.497 7.55377 430.6V430.576ZM122.329 190.497C124.625 199.8 148.957 235.878 156.889 241.19C144.835 224.875 137.481 204.947 122.329 190.497ZM175.428 208.465C176.921 201.027 178.481 193.448 178.592 185.916C178.837 171.513 178.08 157.111 177.723 142.708C177.211 142.66 176.698 142.59 176.186 142.542C174.047 168.491 177.768 195.125 168.075 220.955C171.729 217.366 174.381 213.612 175.406 208.465H175.428ZM222.243 194.558C209.074 206.6 201.565 223.93 188.107 235.736C204.551 226.74 213.486 210.732 222.243 194.558ZM174.849 294.528C171.194 300.738 167.54 306.924 163.329 314.078C170.259 308.789 173.735 302.414 174.849 294.528ZM427.24 454.14C412.6 449.748 397.938 445.357 382.697 440.776C395.71 452.865 411.486 453.243 427.24 454.14ZM383.522 408.924C370.531 410.199 357.786 407.956 344.617 405.524C351.703 413.316 371.423 415.016 383.522 408.924ZM343.325 438.58C350.901 449.866 356.961 461.932 360.437 475.343C353.307 463.821 347.402 451.684 343.325 438.58ZM302.37 362.883C291.474 365.078 280.6 367.274 269.704 369.517C269.459 369.565 269.325 370.155 268.88 370.958C281.246 373.13 292.009 368.974 302.37 362.883ZM277.503 431.45C271.42 413.812 263.688 397.072 252.034 382.574C259.543 399.386 267.743 415.819 277.503 431.45Z" fill="black"/>
<path d="M476.283 285.154C486.087 278.661 494.331 270.445 501.618 261.047C507.745 253.161 513.895 245.322 520.179 237.271C525.192 243.339 525.148 248.722 521.048 254.247C518.686 257.411 516.591 260.788 514.073 263.763C507.121 272.026 500.036 280.149 492.928 288.295C485.062 297.314 481.876 308.01 483.97 319.934C488.471 345.741 496.426 369.99 514.363 389.28C529.404 405.477 546.427 417.755 568.13 421.32C573.901 422.265 579.672 423.256 585.332 424.72C592.73 426.633 600.172 428.616 606.767 434.212C602.378 440.257 596.941 443.633 590.925 445.734C563.607 455.226 538.16 450.433 519.065 425.122C501.038 401.227 488.783 374.121 480.182 345.009C478.778 340.239 477.085 335.588 475.057 331.078C471.113 322.318 468.283 314.668 463.871 304.988C462.312 301.54 460.106 298.424 457.387 295.897L457.298 295.827L462.133 293.088C465.409 293.489 473.141 287.256 476.305 285.178L476.283 285.154Z" fill="black"/>
<path d="M509.84 366.306C506.497 365.291 504.358 363.756 502.888 360.356C495.98 344.348 491.212 327.773 489.964 310.135C489.362 301.682 491.323 294.197 497.339 288.2C501.261 284.281 505.071 280.243 508.882 276.229C515.343 269.406 522.407 263.054 525.749 251.225C527.465 254.885 528.245 256.301 528.802 257.813C531.097 264.069 533.503 270.279 535.553 276.631C540.946 293.324 548.811 308.529 559.173 322.318C562.069 326.167 564.03 330.205 562.002 335.257C554.961 352.706 535.843 374.263 509.862 366.306H509.84Z" fill="black"/>
<path d="M565.412 316.486C563.139 313.7 560.955 310.867 558.705 308.057C559.485 307.231 560.264 306.404 561.044 305.578C595.938 313.417 628.894 325.199 652.713 355.87C642.909 375.42 619.446 388.123 600.662 384.534C599.437 384.298 598.189 383.802 597.119 383.165C584.262 375.467 571.406 367.699 558.259 359.789C561.356 354.689 564.743 349.873 567.35 344.631C572.163 334.974 572.631 325.364 565.412 316.51V316.486Z" fill="black"/>
<path d="M586.981 206.505C584.441 214.061 582.547 221.923 581.009 229.81C578.447 242.819 571.562 253.137 563.696 262.936C562.738 264.117 561.267 265.085 559.863 265.581C554.248 267.564 548.566 269.335 542.372 271.365C537.091 257.081 532.055 243.362 526.841 229.243C530.384 224.686 533.57 220.105 537.202 215.973C548.477 203.034 560.755 191.394 576.642 185.161C585.688 181.619 594.98 179.281 606.054 182.988C596.607 189.34 590.256 196.801 586.981 206.505Z" fill="black"/>
<path d="M570.225 414.993C564.052 414.001 557.813 411.947 552.221 409.019C539.364 402.29 528.044 393.081 518.285 381.866C517.015 380.402 516.168 378.49 514.519 375.774C526.395 378.253 536.177 375.892 544.979 369.895C549.079 367.085 552.599 367.416 556.32 369.683C569.489 377.687 582.859 385.36 595.604 394.049C602.155 398.512 607.971 404.438 613.363 410.459C617.106 414.662 620.961 419.455 621.095 427.152C616.393 426.208 612.494 425.972 608.996 424.626C596.406 419.786 583.416 417.118 570.225 415.016V414.993Z" fill="black"/>
<path d="M661.983 351.951C652.424 342.364 642.62 332.566 632.637 322.578C633.105 318.564 633.618 314.291 634.219 309.025C649.861 311.811 661.069 320.075 669.804 332.141C677.09 342.199 683.797 352.753 690.638 362.906C674.706 394.805 647.299 398.158 632.058 389.138C647.143 381.913 657.125 370.178 661.961 351.951H661.983Z" fill="black"/>
<path d="M575.751 262.842C579.605 255.286 583.371 247.612 587.493 240.175C588.474 238.38 590.568 236.492 592.395 236.114C614.009 231.769 634.62 233.328 652.424 249.029C653.939 250.375 654.964 252.335 656.613 254.578C640.414 258.379 627.802 266.856 618.555 277.622C603.403 272.381 589.677 267.635 575.751 262.842Z" fill="black"/>
<path d="M674.461 322.555C672.366 320.642 670.472 318.446 668.177 316.935C660.98 312.236 654.095 305.814 646.229 303.76C636.358 301.186 629.896 296.228 625.796 286.925C625.551 286.358 625.484 285.674 625.195 284.493C633.751 272.782 645.227 265.888 659.264 263.857C661.203 263.574 663.676 264.235 665.325 265.368C684.31 278.283 688.254 302.296 674.461 322.555Z" fill="black"/>
<path d="M616.26 314.716C597.81 305.602 578.514 299.628 558.304 297.196C554.516 296.747 551.708 295.709 550.237 291.624C549.034 288.224 547.363 285.013 545.268 280.338C549.502 278.378 552.532 276.418 555.808 275.568C578.937 269.595 599.481 276.017 617.886 291.104C626.064 297.81 626.977 307.066 624.638 318.021C621.407 316.746 618.733 315.943 616.26 314.716Z" fill="black"/>
<path d="M589.922 227.047C590.524 215.218 594.646 206.104 600.729 197.698C603.559 193.802 606.701 192.622 611.38 193.495C637.383 198.312 650.53 217.485 659.732 241.78C638.609 225.63 614.967 223.316 589.922 227.023V227.047Z" fill="black"/>
<path d="M611.848 394.734C612.249 394.191 612.672 393.648 613.073 393.105C625.418 398.654 637.829 403.14 651.577 401.605C665.503 400.023 676.845 393.742 687.006 382.149C689.033 408.641 657.638 431.355 630.654 424.862C627.802 419.361 625.373 413.859 622.254 408.877C619.156 403.919 615.346 399.433 611.848 394.758V394.734Z" fill="black"/>
<path d="M679.831 331.952C685.245 320.902 690.771 310.182 690.905 297.739C691.039 285.414 685.647 275.12 678.271 264.683C706.971 275.733 713.009 324.609 689.524 345.694C686.315 341.16 683.151 336.65 679.831 331.975V331.952Z" fill="black"/>
<path d="M363.134 217.107C362.086 216.351 362.599 216.469 361.618 215.69C356.672 209.716 351.48 204.758 348.294 198.69C341.564 185.845 332.496 175.197 323.003 164.69C313.801 154.537 307.227 142.59 304.843 128.565C303.328 119.545 302.615 110.431 306.492 101.506C319.082 102.663 331.27 104.269 343.525 104.812C362.911 105.662 381.762 109.392 400.523 113.949C407.408 115.626 412.422 119.545 415.92 125.873C421.558 136.049 424.053 147.076 424.744 158.74C425.034 163.769 423.741 167.452 419.374 170.333C412.645 174.748 406.183 179.612 399.81 184.57C396.29 187.286 392.613 187.475 389.003 185.987C380.826 182.611 372.537 179.305 364.76 175.102C357.34 171.088 350.477 165.988 343.391 161.361C343.302 163.037 343.926 164.005 344.706 164.808C357.429 178.03 372.514 187.097 389.805 192.457C396.022 194.393 401.125 193.566 406.584 189.269C415.965 181.902 425.702 174.937 435.796 168.68C460.863 153.191 487.847 143.935 517.037 142.873C522.897 142.66 528.891 142.259 534.417 145.258C530.473 153.002 527.042 156.473 516.925 163.509C510.575 167.925 503.69 171.75 498.164 177.109C487.379 187.569 475.057 194.204 461.019 198.525C439.339 205.183 417.658 211.676 395.354 215.69C387.622 217.083 373.807 219.539 367.456 223.812C367.412 223.789 365.451 225.205 365.384 225.182" fill="black"/>
<path d="M401.749 104.552C415.341 95.6269 429 90.2671 443.372 87.0796C456.385 84.1754 469.331 81.2476 481.519 74.4004C490.231 87.481 494.309 101.695 494.376 117.16C494.376 119.994 493.841 123.488 492.214 125.566C486.844 132.437 481.608 139.379 472.784 142.401C462.846 145.801 453.243 150.311 443.528 154.443C440.497 155.741 437.623 157.465 434.325 159.188C429.445 136.404 427.061 113.312 401.749 104.552Z" fill="black"/>
<path d="M463.359 230.99C440.609 231.533 418.906 225.701 397.292 219.586C396.691 219.421 396.29 218.571 395.487 217.721C401.437 217.201 406.851 217.296 412.043 216.186C430.693 212.196 449.277 207.851 467.86 203.554C478.288 201.146 487.379 195.927 495.668 188.939C499.122 186.034 502.598 183.059 506.408 180.698C515.433 175.126 524.88 170.781 536.846 171.797C531.855 180.132 527.042 187.427 522.964 195.125C509.951 219.68 489.407 230.353 463.381 230.99H463.359Z" fill="black"/>
<path d="M347.313 76.1004C351.391 83.0421 352.215 89.1338 347.425 96.4061C334.501 96.0047 321.288 95.5797 307.116 95.1311C299.161 67.9781 303.239 43.6349 318.435 21.1806C321.265 17.0014 325.744 13.9084 329.732 10.6736C331.225 9.46946 333.52 9.32779 336.306 8.43056C330.156 33.4821 335.281 55.6294 347.335 76.1004H347.313Z" fill="black"/>
<path d="M446.358 42.8558C433.1 47.8377 420.042 52.7489 405.537 58.2031C401.815 53.41 397.693 48.4988 394.061 43.2335C392.702 41.2502 391.343 38.0863 391.944 36.0557C394.373 27.6737 398.741 19.9529 406.406 15.9862C426.504 5.64444 447.561 20.4015 446.335 42.8794L446.358 42.8558Z" fill="black"/>
<path d="M387.934 102.332C377.706 100.514 367.545 98.4838 357.028 96.4297C357.986 89.4171 360.838 83.7976 366.855 80.3032C378.82 73.3615 391.9 70.6934 405.292 70.2212C414.271 69.9142 420.02 75.0851 421.892 82.8532C411.887 88.9921 402.083 95.0602 392.234 101.01C390.964 101.766 389.271 102.521 387.956 102.309L387.934 102.332Z" fill="black"/>
<path d="M528.668 129.674C527.955 131.327 525.482 132.956 523.677 133.192C514.72 134.397 505.718 135.152 494.844 136.262C511.021 116.098 523.944 95.9811 519.711 68.5212C522.117 69.9851 523.855 70.6462 525.081 71.874C530.696 77.4698 534.105 84.4115 535.331 92.3921C537.336 105.544 533.749 117.821 528.646 129.674H528.668Z" fill="black"/>
<path d="M502.865 110.62C499.701 86.2768 490.276 67.3406 473.497 52.5364C482.321 45.8072 492.125 44.9572 501.707 43.2335C515.054 65.2628 518.374 86.6782 502.843 110.596L502.865 110.62Z" fill="black"/>
<path d="M359.234 75.6046C354.911 71.5198 353.619 67.1045 354.087 61.91C355.201 49.1127 359.502 37.6613 367.791 27.9571C369.729 25.6904 372.269 23.9432 373.673 22.7154C381.383 36.4571 388.558 49.2072 395.978 62.4295C383.344 65.1212 370.041 66.7976 359.256 75.6046H359.234Z" fill="black"/>
<path d="M476.439 40.1641C469.91 43.2808 463.292 44.7447 455.738 42.6669C452.374 22.314 443.194 7.27361 421.112 4.55832C445.065 -4.2959 471.336 8.47779 479.759 32.3488C481.163 36.3391 479.892 38.4877 476.439 40.1405V40.1641Z" fill="black"/>
<path d="M432.61 80.2796C427.217 74.5657 422.226 69.2767 416.477 63.1614C427.284 58.4156 437.846 53.41 449.856 52.8669C460.886 52.3711 469.264 56.9044 475.748 65.9476C465.944 73.3851 448.363 79.0754 432.61 80.2796Z" fill="black"/>
<path d="M345.798 53.3391C341.876 43.3752 340.406 33.3876 341.498 23.1404C341.832 20.0237 342.612 16.2459 344.55 14.1209C356.828 0.662465 381.026 -5.52368 398.741 6.1875C368.771 7.81667 353.909 26.3751 345.798 53.3391Z" fill="black"/>
<path d="M392.011 14.9945C392.323 15.5848 392.635 16.1751 392.969 16.7653C390.808 20.2362 388.647 23.6834 385.906 28.1223C383.856 24.1557 382.452 21.4167 381.004 18.5834L392.034 15.0181L392.011 14.9945Z" fill="black"/>
</svg>
