<svg width="77" height="75" viewBox="0 0 77 75" fill="none" xmlns="http://www.w3.org/2000/svg">
<path d="M56.1727 40.1814C54.1994 39.1991 52.4595 39.3983 50.7334 39.4635C49.7142 39.4979 48.6984 39.5288 47.686 39.5941C47.1198 39.6284 46.5981 39.5631 46.1108 39.4189C46.0937 39.4154 46.0765 39.412 46.0594 39.4051C45.6338 39.2712 45.2357 39.072 44.8685 38.8109C44.8239 38.78 44.7827 38.7491 44.7416 38.7182C44.4361 38.4949 44.1479 38.2304 43.8733 37.9316C41.7388 35.6063 40.1979 32.9237 39.0037 30.0144C38.7532 29.3961 38.8253 28.9153 39.1272 28.3313C41.4471 23.7631 46.732 23.7596 49.9098 24.9172C50.8329 25.2503 51.104 26.0163 51.231 26.8853C51.6874 30.0007 52.6517 32.9443 54.1274 35.7265C54.6902 36.7878 55.1878 37.8767 55.706 38.9586C55.8329 39.2162 55.9153 39.5013 56.1727 40.1814Z" fill="black"/>
<path d="M52.8027 26.7376C52.8714 27.3902 52.9571 28.0428 53.0361 28.692C53.2454 28.6851 53.4548 28.6783 53.6641 28.6714C57.1542 22.8941 59.8824 16.9003 58.9661 9.86585C55.1535 8.83541 50.4657 10.5219 48.5028 13.5548C48.3758 13.7541 48.2797 13.9842 48.2248 14.2143C47.5659 16.9312 46.9139 19.6516 46.2481 22.4372C47.3154 22.633 48.3758 22.7532 49.395 23.0314C51.2756 23.5467 52.5831 24.6561 52.8062 26.7342L52.8027 26.7376Z" fill="black"/>
<path d="M69.9134 37.1897C68.599 36.6195 67.3327 35.9154 66.1076 35.17C64.0828 33.9369 61.8488 33.6244 59.5564 33.5145C59.2784 33.5007 58.9627 33.5866 58.7156 33.7206C57.7307 34.2529 56.7664 34.8231 55.6991 35.4311C56.8796 37.9041 58.0121 40.2776 59.1755 42.7197C60.229 42.7884 61.2345 42.9052 62.2434 42.9121C65.3869 42.9327 68.4892 42.6613 71.3547 41.2256C72.9882 40.4081 74.4913 39.412 75.4385 37.4267C73.3897 37.9557 71.5984 37.9213 69.9099 37.1897H69.9134Z" fill="black"/>
<path d="M39.0415 17.261C38.2556 19.8611 37.9879 22.5471 38.1938 25.2641C38.2213 25.6213 38.362 25.9682 38.5027 26.5246C39.7175 24.584 41.2892 23.5192 43.2076 23.0349C44.1033 22.8116 44.5151 22.2861 44.7038 21.4961C45.3661 18.7002 46.0937 15.9145 46.6119 13.0946C46.8795 11.6451 46.859 10.1166 46.7697 8.63619C46.708 7.60575 46.581 6.48944 45.5961 5.5277C45.1122 6.29023 44.6386 6.85697 44.3606 7.50958C43.362 9.83838 42.0305 11.9576 40.596 14.0391C39.9268 15.0112 39.3881 16.1275 39.0449 17.2575L39.0415 17.261Z" fill="black"/>
<path d="M51.9585 8.6568C54.848 7.45462 57.6689 7.50958 60.6683 9.06555C60.6786 11.5558 60.6889 14.1078 60.7026 16.708C61.286 17.1339 61.9071 17.5839 62.6724 18.1437C64.3334 15.6432 64.704 13.0843 64.2647 10.4051C63.8975 8.16906 63.3896 5.95361 62.9538 3.76908C56.7389 2.07572 52.7581 5.4487 51.9619 8.6568H51.9585Z" fill="black"/>
<path d="M66.7562 32.8241C70.1158 30.3682 72.5764 27.3318 72.8338 22.9559C72.8544 22.5815 72.7308 22.2002 72.6519 21.6987C70.0609 23.4711 67.3293 24.1787 64.7314 24.1409C63.4548 26.875 62.2983 29.348 61.1213 31.8589C62.6038 32.247 64.0897 32.6661 65.5928 33.0061C65.9531 33.0885 66.4679 33.0336 66.7562 32.8241Z" fill="black"/>
<path d="M64.4569 22.0079C64.4981 22.1144 64.577 22.2037 64.6971 22.3891C67.3293 22.6364 69.7109 21.8945 71.794 20.2012C72.0822 19.9676 72.3122 19.5451 72.3808 19.1776C73.1529 14.9768 70.5379 11.5008 66.111 10.9306C66.087 11.4527 66.1316 11.9851 66.0286 12.4866C65.7129 14.0563 65.658 15.7909 64.9065 17.127C63.9662 18.8066 63.774 20.3008 64.4569 22.0079Z" fill="black"/>
<path d="M62.8886 22.5884C63.0705 20.6374 61.9826 19.3837 60.253 18.367C59.9991 18.9681 59.7623 19.4352 59.601 19.9264C58.4033 23.5879 56.6875 26.9849 54.3882 30.0728C53.9558 30.6533 53.7293 31.1685 54.0725 31.8692C54.3573 32.4497 54.5598 33.0748 54.9029 33.9335C55.706 33.5866 56.3546 33.408 56.8899 33.0611C60.658 30.5949 62.4768 26.9746 62.892 22.5884H62.8886Z" fill="black"/>
<path d="M67.6175 34.2736C69.2373 35.6337 70.9566 36.1764 72.8372 36.3619C73.7089 36.4478 74.2682 36.1558 74.759 35.4036C77.4941 31.2234 76.6979 27.0673 74.7212 22.8254C74.0932 27.7165 71.3375 31.2612 67.6175 34.2701V34.2736Z" fill="black"/>
<path d="M48.616 10.7658C48.7395 10.7761 48.8631 10.7864 48.9866 10.7967C49.8617 8.41293 50.881 6.1494 52.8576 4.4423C54.8618 2.71116 57.1507 1.91085 59.9751 1.92459C56.787 -1.59264 49.7691 -0.0263751 47.1266 4.49382C47.4732 5.56205 47.8747 6.56501 48.1218 7.60919C48.3655 8.64306 48.4581 9.71472 48.616 10.7692V10.7658Z" fill="black"/>
<path d="M71.4679 11.6932C73.0912 13.177 73.7329 15.1829 74.1413 17.4774C76.4131 12.1637 70.8296 5.35939 65.0472 6.02918C65.2222 7.02527 65.3972 8.0145 65.5825 9.0415C67.7239 9.64259 69.831 10.1887 71.4714 11.6897L71.4679 11.6932Z" fill="black"/>
<path d="M57.2708 42.6545C55.4108 42.5411 53.592 42.4312 51.7698 42.3144C49.6043 42.1805 47.4698 42.311 45.3593 42.8709C44.7484 43.0357 43.2247 43.3036 42.6551 43.7193C42.6242 43.6918 42.5899 43.6609 42.559 43.63C42.2192 43.3346 41.9001 43.022 41.6015 42.7129C41.4677 42.5755 41.3407 42.4415 41.2172 42.3076C41.2034 42.2595 41.1897 42.2148 41.1726 42.1702C40.9426 41.5794 40.7196 41.0367 40.5034 40.5215C40.0607 39.4738 39.6386 38.5258 39.213 37.4439C38.8939 36.6127 38.5027 35.8055 38.0634 35.0292C35.3832 30.2892 33.4374 25.2847 32.6584 19.8749C31.8314 14.1456 34.4944 10.0479 39.2611 7.43401C40.3181 6.85697 41.454 6.52036 42.8129 6.65088C42.6894 8.24463 41.9859 9.51207 41.2789 10.7692C40.7367 11.731 40.119 12.648 39.4979 13.5583C37.154 16.9931 36.55 20.8435 36.7182 24.9C36.9138 29.7327 39.0415 33.7858 41.8212 37.571C42.4629 38.4331 43.2282 39.0823 44.1101 39.5254C44.1616 39.5494 44.2131 39.5735 44.268 39.5941C44.6764 39.7864 45.1122 39.9307 45.572 40.0234C45.5926 40.0268 45.6132 40.0337 45.6338 40.0337C46.1005 40.1368 46.5878 40.1883 47.0992 40.1917C49.0759 40.2055 51.0525 40.2226 53.0292 40.2639C53.7396 40.281 54.4534 40.4047 55.1672 40.4665C56.4163 40.573 57.1233 41.2222 57.2674 42.6545H57.2708Z" fill="black"/>
<path d="M18.1353 47.1678C18.1628 47.2056 18.1868 47.2399 18.2142 47.2777C18.2348 47.3018 18.2932 47.2983 18.3858 47.3018L18.1353 47.1678Z" fill="black"/>
<path d="M18.1353 47.1678C18.1628 47.2056 18.1868 47.2399 18.2142 47.2777C18.2348 47.3018 18.2932 47.2983 18.3858 47.3018L18.1353 47.1678Z" fill="black"/>
<path d="M41.6976 41.9744C41.303 42.39 40.7642 43.5819 40.2769 44.0593C39.4841 44.839 38.5713 45.6771 37.5383 46.5461C31.5774 51.5678 24.7414 54.5629 19.3124 58.7603C19.0173 57.8844 18.7324 57.0016 18.4407 56.1155C18.4407 56.1086 18.4407 56.1017 18.4339 56.0949C18.3858 55.9403 18.3343 55.7788 18.2829 55.6208C18.252 55.5315 18.2657 55.4354 18.2554 55.3083C19.6624 54.3465 20.8738 53.1444 21.869 51.6743C22.902 50.1423 23.5025 48.4078 23.9967 46.5908C24.0688 46.3263 24.1477 46.0652 24.2198 45.8008C24.6419 44.2276 25.215 42.7197 26.6906 41.6446C26.4195 41.6893 26.1484 41.7065 25.8876 41.7752C23.7908 42.3247 21.9686 43.3311 20.3522 44.6638C19.7345 45.1722 19.2712 45.7664 18.9074 46.4156C18.6741 46.8243 18.4819 47.2605 18.3206 47.7105C18.1936 48.0643 18.0838 48.4249 17.9877 48.7959C17.7029 49.8847 17.473 50.977 17.1881 52.1929C17.0303 51.9216 16.8964 51.7807 16.8621 51.6193C16.7557 51.2037 16.6528 50.7881 16.5464 50.3656C16.4881 50.1389 16.4297 49.9122 16.3748 49.6821C16.0316 48.3219 15.6953 46.948 15.3693 45.5672C15.2904 45.2512 15.335 44.8974 15.3865 44.578C15.7571 42.2801 16.1655 39.941 16.5361 37.5504C16.6082 37.0729 16.8656 36.8084 17.1744 36.5233C19.5835 34.277 21.4847 31.5257 22.8162 28.2077C23.2108 27.2391 23.4717 26.2155 23.3653 24.9618C22.5142 25.6144 21.7489 26.109 21.1003 26.7239C19.707 28.0428 18.3687 29.379 17.0749 30.7151C15.6439 32.1921 15.0261 34.0159 15.2046 36.0734C15.3865 38.0931 14.8477 39.9753 14.7379 41.8885C14.6692 41.8954 14.5972 41.9023 14.5285 41.9057C14.3741 41.229 14.1579 40.5489 14.0893 39.8585C13.8696 37.7702 13.7118 35.644 13.5127 33.4973C13.372 31.9448 13.7392 30.5193 14.453 29.1591C14.6933 28.7023 14.8854 28.2043 15.16 27.7715C16.3233 25.9854 16.0351 24.2096 15.1085 22.4372C14.1751 20.6546 12.974 19.0986 11.6184 17.6869C11.1517 17.1992 10.6953 16.7011 10.1325 16.1C9.91972 16.6324 9.7344 17.0412 9.59027 17.4739C8.90392 19.4936 8.372 21.5133 8.34798 23.6463C8.31366 26.3254 9.25053 28.4172 11.2238 29.9354C11.3645 30.0419 11.4983 30.1587 11.639 30.2651C12.7509 31.1445 12.8436 31.4467 12.4626 33.0267C10.8634 31.6081 9.1613 30.4369 7.14001 29.7087C6.98215 31.1204 7.09196 32.4531 7.32189 33.7789C7.71654 36.0803 8.87304 37.7633 10.7708 38.8693C12.2602 39.7452 13.2965 40.8409 13.5642 42.7369C13.8216 44.602 14.4119 46.4121 14.8992 48.4181C13.1044 47.4975 11.464 46.6594 9.76186 45.7801C9.77215 45.9828 9.73783 46.1889 9.78588 46.3881C9.96433 47.0785 10.1634 47.7586 10.359 48.4421C10.3864 48.5452 10.4139 48.6482 10.4482 48.7547C10.6164 49.3558 10.8703 49.8916 11.1929 50.3793C11.6802 51.1144 12.3254 51.7361 13.0769 52.2891C13.8628 52.8661 14.6246 53.4775 15.3762 54.0924C16.2822 54.8377 17.0268 55.6689 17.4592 56.72C17.4661 56.7372 17.4695 56.7509 17.4764 56.7681C17.5485 56.9501 17.6171 57.139 17.6686 57.3348C17.8676 58.0527 18.1216 58.7534 18.3927 59.4884C17.9843 59.8113 17.5862 60.1342 17.1847 60.4605C14.3981 62.7343 11.7523 64.9807 9.15101 67.0965C6.67672 69.1127 4.25048 71.0225 1.9272 72.8945C1.43303 73.2895 0.980038 73.7257 0.479004 74.1619C0.750111 74.4642 0.966311 74.7046 1.23055 75C1.50166 74.7802 1.74875 74.6016 1.97524 74.4023C4.35001 72.314 6.89292 70.2462 9.66234 68.2472C9.82363 68.1304 9.98492 68.0274 10.1531 67.9277L12.7509 65.9012C13.0426 65.623 13.2142 65.4478 13.3926 65.3001C15.1394 63.8266 16.8964 62.2878 18.7702 60.7868C18.8525 60.7284 18.9315 60.6631 19.0104 60.6013C24.5424 55.6586 32.5417 52.9486 39.0895 46.9926C39.745 46.4121 40.4416 45.763 41.1726 45.0485C41.6221 44.6054 42.6311 43.7055 43.1046 43.204C42.7649 42.9086 41.9962 42.2801 41.6976 41.9709V41.9744ZM21.8004 46.4671C22.0303 46.1305 22.2637 45.7973 22.5073 45.4573C22.2328 46.1305 21.948 46.7762 21.6494 47.422C20.7228 49.4004 19.7002 51.269 18.626 53.0654C19.2575 50.6953 20.3934 48.5417 21.8004 46.4671ZM20.3007 28.9084C19.4394 31.1994 18.3858 33.3256 17.0509 35.2319C17.7921 32.9821 18.8114 30.8388 20.3007 28.9084ZM12.6788 38.1824C12.116 36.9802 11.5601 35.7952 10.9184 34.6651C10.4997 33.9301 10.0433 33.2191 9.52507 32.5458C9.43927 32.4291 9.34662 32.3054 9.25396 32.1886C9.5285 32.3569 9.80304 32.563 10.0639 32.7932C10.8566 33.4904 11.5635 34.4384 12.0405 35.4105C12.5381 36.4066 12.7989 37.4164 12.6788 38.1824ZM13.3995 29.1007C13.1112 28.2455 12.823 27.3971 12.5347 26.5556C12.0783 25.2057 11.6184 23.8661 11.1654 22.5197C11.1071 22.3514 11.0522 22.1796 10.9904 22.0044C10.8531 21.5957 10.7124 21.187 10.5752 20.7782C10.6575 20.9087 10.7365 21.0496 10.8154 21.1801C10.9664 21.4377 11.1105 21.6884 11.2547 21.9392C11.4331 22.2449 11.6116 22.5506 11.7797 22.8631C12.8127 24.7523 13.5917 26.7239 13.4029 29.1007H13.3995ZM15.5546 51.7327H15.5478C15.4517 51.743 15.3933 51.7533 15.3693 51.7292C15.335 51.6949 15.3041 51.664 15.2664 51.6296C14.9472 51.3033 14.6246 50.977 14.302 50.6541C13.3755 49.7233 12.442 48.789 11.512 47.8513H11.5155C13.0186 48.6448 14.357 49.5996 15.2629 51.0697C15.3144 51.1522 15.3659 51.2415 15.4174 51.3308C15.4791 51.4407 15.5409 51.554 15.5958 51.6708C15.6061 51.688 15.613 51.7086 15.6267 51.7258C15.5992 51.7258 15.5752 51.7258 15.5546 51.7327Z" fill="black"/>
</svg>
