<svg width="105" height="75" viewBox="0 0 105 75" fill="none" xmlns="http://www.w3.org/2000/svg">
<path d="M103.873 64.3291C100.158 62.9357 96.4922 61.4118 92.8964 59.6938C91.7997 59.1682 90.8891 58.4663 90.138 57.4997C89.4534 56.6178 88.7887 55.7253 88.1241 54.8258C86.7848 53.0126 85.7678 51.0548 85.1962 48.7901C84.5548 46.2538 83.694 43.7774 82.8998 41.2834C82.5076 40.0594 82.0423 38.86 81.5837 37.5795C81.9759 37.2444 82.3182 36.8845 82.7137 36.627C83.3218 36.2319 83.9666 35.8968 84.6013 35.5441C86.6585 34.4011 87.9911 32.6761 88.4198 30.2245C88.6259 29.0498 88.8319 27.8716 88.5927 26.6793C88.4564 26.6369 88.37 26.5805 88.2902 26.5875C87.9346 26.6158 87.5757 26.6369 87.2234 26.704C84.4418 27.2366 82.4378 28.7641 81.6269 31.7484C81.4209 32.5068 81.3046 33.2935 81.1351 34.066C81.1018 34.2142 81.0187 34.3447 80.8991 34.6198C80.713 33.8755 80.5767 33.297 80.4239 32.7185C80.0151 31.1593 80.1946 29.7377 81.1184 28.3901C81.5073 27.8257 81.7765 27.0885 81.8729 26.3935C82.0623 25.0389 81.9127 23.6667 81.597 22.3368C80.9722 19.7123 79.9619 17.2395 78.9018 14.7913C78.8087 14.5797 78.6658 14.3927 78.4864 14.0929C78.4033 14.4386 78.3235 14.6467 78.3036 14.8619C77.9447 18.4565 77.5625 22.0511 77.2567 25.6527C77.0773 27.7834 77.157 29.9105 78.0842 31.8895C78.5362 32.856 79.0281 33.7979 79.5 34.7539C79.7692 35.3042 80.0317 35.8615 80.2976 36.4154C80.2511 36.4577 80.2078 36.5036 80.1613 36.5459C79.5199 36.0591 78.8785 35.5723 78.2371 35.0855C77.5359 34.5528 77.0706 33.8261 76.6917 33.0254C76.489 32.6021 76.2797 32.1823 76.1002 31.7449C74.9636 28.9334 72.6971 27.7023 70.1149 26.9262C69.9852 26.8874 69.8324 26.9227 69.5732 26.9227C69.8955 27.4553 70.1581 27.9069 70.4405 28.3478C71.3478 29.7729 72.0889 31.2827 72.6738 32.8878C72.8898 33.4769 73.1491 34.0519 73.4249 34.6128C73.8403 35.4629 74.4751 36.1049 75.3391 36.3766C76.1633 36.6376 77.0174 36.8457 77.8749 36.9304C79.4701 37.0856 80.5701 37.9252 81.1085 39.4808C82.0025 42.0701 82.82 44.6875 83.6641 47.2979C83.7971 47.7071 83.9034 48.1269 84.0463 48.6173C83.149 48.074 82.2251 46.9805 81.7997 46.0174C81.0586 44.3454 80.2112 42.7474 78.9882 41.4034C78.4465 40.8072 77.8383 40.3204 76.9543 40.0382C77.1404 41.6573 77.1836 43.213 77.6755 44.6805C78.3667 46.7406 79.6828 48.0846 81.7831 48.4585C82.0257 48.5008 82.2949 48.6772 82.4611 48.8748C83.2986 49.8625 84.1593 50.8326 84.9104 51.8944C86.1101 53.5947 87.2268 55.3585 88.3766 57.094C88.5229 57.3163 88.6724 57.5314 88.9283 57.9124C88.5062 57.7678 88.2537 57.6972 88.0111 57.602C85.7146 56.6989 83.4049 55.8347 81.1317 54.8717C79.1377 54.0286 77.1304 53.1855 75.2228 52.1484C72.4844 50.6597 69.839 48.9841 67.1405 47.4179C66.5223 47.0581 66.0371 46.603 65.5951 46.0245C64.1993 44.2078 62.8168 42.3699 61.3047 40.6661C58.3901 37.3819 54.9139 34.8527 51.2349 32.6303C50.8893 32.4222 50.5437 32.2105 50.2014 31.9988C49.9654 32.3057 49.7062 32.6091 49.4171 32.8913C49.56 32.976 49.7029 33.0642 49.8425 33.1735C50.6101 33.7662 51.4875 34.2036 52.3084 34.7221C56.4825 37.3608 60.1349 40.6449 63.1691 44.6875C63.3053 44.8674 63.4083 45.0756 63.5978 45.3895C63.3219 45.2978 63.1824 45.2625 63.0527 45.2026C59.1212 43.4282 54.9903 42.7156 50.7431 42.6063C47.566 42.5251 44.4121 42.8638 41.2616 43.1813C38.8223 43.4247 36.3929 43.7386 33.9602 44.0349C33.8539 44.049 33.7542 44.049 33.6578 44.042L34.1928 45.1567C37.7754 44.7863 41.4842 44.3736 45.1997 44.0208C48.5131 43.7104 51.8198 43.7316 55.1266 44.1972C58.5463 44.6769 61.7766 45.7317 64.8008 47.4673C67.6356 49.097 70.4306 50.8008 73.2421 52.4729C73.3551 52.5399 73.4482 52.6422 73.6542 52.8151C72.4545 53.1784 71.3445 53.4465 70.2877 53.8557C69.0348 54.3425 67.8217 54.212 66.6021 53.8169C65.7447 53.5382 64.8906 53.2525 64.0531 52.9209C62.7204 52.3988 61.3878 52.2436 60.0285 52.7763C59.3306 53.0514 58.6327 53.323 57.9414 53.6123C57.7753 53.6829 57.6357 53.8345 57.4861 53.9474C59.0049 54.8681 60.4639 55.7535 62.0524 56.7166C60.3243 57.4538 58.7125 57.9865 57.2435 58.812C55.768 59.6445 54.4686 59.4116 53.0993 58.692C51.3513 57.7748 49.5999 57.7713 47.8451 58.7132C46.8448 59.2529 45.9109 59.8773 45.0801 60.7521C46.6122 61.9409 48.2605 62.6464 50.0153 63.1438C49.1711 64.2479 48.9219 64.3326 47.782 63.934C47.6391 63.8846 47.4962 63.8387 47.3566 63.7894C45.3559 63.0592 43.5381 63.4225 41.883 64.8018C40.5936 65.8777 39.6464 67.2534 38.799 68.7209C38.6195 69.0278 38.4733 69.3559 38.2706 69.7545C38.9153 69.8744 39.4437 69.9661 39.9688 70.072C41.5042 70.3789 43.0495 70.5059 44.6082 70.3365C46.1702 70.1672 47.4231 69.5358 47.9747 67.8214C48.1077 67.4051 48.3303 67.0171 48.5032 66.615C49.0216 65.4015 49.766 64.3996 50.8627 63.7118C52.4048 62.7452 53.9302 61.7504 55.4822 60.8086C56.0006 60.4946 56.5855 60.2971 57.1405 60.0501C57.1738 60.1101 57.2037 60.1701 57.2369 60.23C55.9474 61.3483 54.9172 62.7699 53.4483 63.6835C51.9727 64.6007 51.0787 65.9941 50.8262 67.7967C50.6035 69.3982 50.4041 71.0033 50.2512 72.6118C50.1814 73.3561 50.2379 74.1146 50.2379 75C51.0754 74.5097 51.5939 73.8641 52.0259 73.1445C53.5247 70.6434 54.4154 67.906 54.7377 64.9605C54.7809 64.576 54.8308 64.2444 55.1199 63.941C56.5855 62.3995 58.0245 60.8297 59.4802 59.2776C59.6862 59.0589 59.9222 58.8296 60.1847 58.7132C61.9261 57.9618 63.6809 57.2387 65.4323 56.519C65.5718 56.4626 65.7447 56.4908 66.0338 56.4696C65.2462 57.4009 64.5383 58.2123 63.8636 59.0518C62.9032 60.2547 62.1388 61.567 61.9959 63.1897C61.8231 65.1404 61.986 67.0524 62.5941 68.9114C62.6706 69.1407 62.7836 69.3559 62.8799 69.5746C62.9431 67.9413 63.744 66.7384 64.6812 65.6061C64.8374 65.4156 64.9903 65.218 65.1465 65.0275C66.2498 63.6835 67.2568 62.2796 67.9148 60.611C68.5595 58.9813 68.9052 57.2951 68.9683 55.5525C69.0713 55.489 69.1444 55.4219 69.2275 55.3973C71.052 54.8046 72.8732 54.1979 74.711 53.6476C74.9836 53.5664 75.3458 53.704 75.6316 53.8275C77.6223 54.6812 79.5964 55.5842 81.5937 56.4203C85.0633 57.8701 88.5561 59.2635 92.0257 60.7204C95.4387 62.1526 98.8352 63.6377 102.242 65.0875C102.979 65.4015 103.737 65.666 104.538 65.9729C104.704 65.5532 104.84 65.218 105 64.8088C104.585 64.6325 104.232 64.4667 103.873 64.3326V64.3291ZM86.7548 28.4607C86.4125 29.8505 82.7834 35.2407 81.6003 36.0344C83.3983 33.5968 84.495 30.6196 86.7548 28.4607ZM78.8353 31.1452C78.6126 30.034 78.38 28.9016 78.3634 27.7763C78.3268 25.6245 78.4398 23.4727 78.493 21.3209C78.5694 21.3138 78.6459 21.3032 78.7223 21.2962C79.0414 25.173 78.4864 29.1521 79.932 33.0113C79.387 32.4751 78.9915 31.9142 78.8386 31.1452H78.8353ZM71.853 29.0674C73.8171 30.8665 74.937 33.4557 76.9443 35.2195C74.4917 33.8755 73.159 31.4838 71.853 29.0674ZM78.9217 44.0032C79.4668 44.9309 80.0118 45.8552 80.6399 46.924C79.6063 46.1338 79.0879 45.1814 78.9217 44.0032ZM41.2782 67.8496C43.4616 67.1935 45.6484 66.5373 47.9216 65.853C45.9807 67.6591 43.6278 67.7155 41.2782 67.8496ZM47.7986 61.0943C49.7361 61.2848 51.6371 60.9497 53.6012 60.5863C52.5443 61.7504 49.6032 62.0044 47.7986 61.0943ZM53.7939 65.5249C52.664 67.2111 51.76 69.0137 51.2416 71.0174C52.3051 69.2959 53.1857 67.4827 53.7939 65.5249ZM59.9022 54.2155C61.5273 54.5436 63.1491 54.8716 64.7742 55.2068C64.8108 55.2138 64.8307 55.302 64.8972 55.4219C63.0527 55.7465 61.4476 55.1256 59.9022 54.2155ZM63.6111 64.4596C64.5183 61.8245 65.6715 59.3235 67.4097 57.1575C66.2897 59.6692 65.0667 62.1243 63.6111 64.4596Z" fill="black"/>
<path d="M33.9635 42.6027C32.5013 41.6327 31.2716 40.4051 30.1849 39.0011C29.271 37.8229 28.3537 36.6517 27.4165 35.4488C26.6688 36.3554 26.6754 37.1597 27.2869 37.9851C27.6392 38.4578 27.9516 38.9623 28.3271 39.4068C29.364 40.6414 30.4208 41.8549 31.481 43.0719C32.6541 44.4194 33.1294 46.0174 32.817 47.7989C32.1457 51.6545 30.9592 55.2773 28.2839 58.1593C26.0407 60.5793 23.5016 62.4136 20.2647 62.9463C19.404 63.0874 18.5432 63.2355 17.6991 63.4542C16.5957 63.74 15.4857 64.0363 14.502 64.8723C15.1567 65.7754 15.9676 66.2798 16.8649 66.5938C20.9393 68.0119 24.7346 67.2958 27.5827 63.5142C30.2713 59.9443 32.0991 55.8946 33.3819 51.5451C33.5913 50.8326 33.8439 50.1376 34.1463 49.4639C34.7345 48.1551 35.1566 47.0122 35.8146 45.5659C36.0473 45.0509 36.3763 44.5852 36.7817 44.2078L36.795 44.1972L36.0738 43.788C35.5853 43.848 34.4321 42.9167 33.9602 42.6063L33.9635 42.6027Z" fill="black"/>
<path d="M28.9586 54.727C29.4571 54.5753 29.7761 54.346 29.9954 53.8381C31.0257 51.4464 31.7369 48.97 31.923 46.3349C32.0127 45.072 31.7203 43.9538 30.823 43.0578C30.2381 42.4722 29.6698 41.869 29.1015 41.2693C28.1377 40.2498 27.0842 39.3009 26.5857 37.5336C26.3298 38.0804 26.2135 38.292 26.1304 38.5178C25.7881 39.4526 25.4292 40.3804 25.1234 41.3293C24.3192 43.8233 23.146 46.095 21.6007 48.1551C21.1686 48.7301 20.8762 49.3334 21.1786 50.0883C22.2288 52.6951 25.0802 55.9158 28.9552 54.727H28.9586Z" fill="black"/>
<path d="M20.6701 47.2838C21.0091 46.8676 21.3348 46.4443 21.6705 46.0245C21.5542 45.901 21.4378 45.7776 21.3215 45.6541C16.1172 46.8252 11.2019 48.5855 7.64928 53.1678C9.11156 56.0887 12.611 57.9865 15.4126 57.4503C15.5954 57.415 15.7815 57.3409 15.941 57.2457C17.8586 56.0957 19.7762 54.9351 21.7369 53.7534C21.275 52.9914 20.7698 52.2718 20.381 51.4887C19.6632 50.0459 19.5934 48.6102 20.6701 47.2874V47.2838Z" fill="black"/>
<path d="M17.4531 30.8524C17.832 31.9812 18.1145 33.1559 18.3438 34.3341C18.726 36.2778 19.7529 37.8193 20.926 39.2833C21.0689 39.4597 21.2883 39.6043 21.4977 39.6784C22.3351 39.9747 23.1826 40.2393 24.1065 40.5426C24.8941 38.4084 25.6452 36.3589 26.4229 34.2494C25.8944 33.5686 25.4192 32.8843 24.8775 32.2669C23.1959 30.3338 21.3647 28.5947 18.9952 27.6635C17.6459 27.1343 16.2601 26.7851 14.6084 27.3389C16.0175 28.2878 16.9646 29.4025 17.4531 30.8524Z" fill="black"/>
<path d="M19.9523 62.0009C20.8729 61.8527 21.8034 61.5458 22.6376 61.1084C24.5551 60.103 26.2434 58.7273 27.699 57.0517C27.8884 56.833 28.0147 56.5472 28.2607 56.1416C26.4893 56.512 25.0304 56.1592 23.7177 55.2632C23.1062 54.8434 22.5811 54.8928 22.0261 55.2315C20.062 56.4273 18.068 57.5738 16.167 58.8719C15.19 59.5386 14.3226 60.424 13.5183 61.3236C12.96 61.9515 12.385 62.6676 12.3651 63.8176C13.0663 63.6765 13.6479 63.6412 14.1697 63.4401C16.0474 62.717 17.9849 62.3184 19.9523 62.0044V62.0009Z" fill="black"/>
<path d="M6.26677 52.5822C7.69249 51.1501 9.15476 49.6861 10.6436 48.1939C10.5738 47.5943 10.4974 46.9558 10.4077 46.1691C8.07467 46.5854 6.40303 47.82 5.10028 49.6226C4.01355 51.1254 3.01322 52.7022 1.99295 54.219C4.36914 58.9848 8.45686 59.4857 10.73 58.1382C8.48012 57.0587 6.99126 55.3055 6.2701 52.5822H6.26677Z" fill="black"/>
<path d="M19.1281 39.2692C18.5532 38.1404 17.9915 36.9939 17.3767 35.8827C17.2305 35.6146 16.9181 35.3324 16.6456 35.276C13.4219 34.6269 10.3478 34.8597 7.69249 37.2055C7.4665 37.4066 7.31363 37.6994 7.0677 38.0345C9.48377 38.6025 11.3648 39.8689 12.744 41.4774C15.0038 40.6943 17.051 39.9853 19.1281 39.2692Z" fill="black"/>
<path d="M4.4057 48.1904C4.71809 47.9047 5.00058 47.5766 5.34288 47.3508C6.41632 46.6489 7.44324 45.6894 8.61638 45.3825C10.0886 44.998 11.0524 44.2572 11.6639 42.8673C11.7004 42.7826 11.7104 42.6803 11.7536 42.504C10.4774 40.7543 8.76593 39.7242 6.67222 39.4209C6.38309 39.3785 6.0142 39.4773 5.76827 39.6466C2.93678 41.5762 2.34855 45.1638 4.4057 48.1904Z" fill="black"/>
<path d="M13.0863 47.0193C15.838 45.6576 18.716 44.7651 21.7303 44.4018C22.2953 44.3348 22.714 44.1796 22.9333 43.5693C23.1128 43.0613 23.3621 42.5816 23.6744 41.8831C23.043 41.5903 22.591 41.2975 22.1025 41.1705C18.6529 40.2781 15.5888 41.2376 12.8437 43.4917C11.624 44.4935 11.4877 45.8763 11.8367 47.5131C12.3186 47.3226 12.7174 47.2027 13.0863 47.0193Z" fill="black"/>
<path d="M17.0145 33.9214C16.9247 32.1541 16.3099 30.7924 15.4026 29.5366C14.9806 28.9545 14.512 28.7782 13.8141 28.9087C9.93575 29.6283 7.97497 32.4927 6.60243 36.1226C9.75296 33.7097 13.279 33.364 17.0145 33.9178V33.9214Z" fill="black"/>
<path d="M13.7443 58.9742C13.6845 58.8931 13.6213 58.8119 13.5615 58.7308C11.7204 59.5598 9.86928 60.23 7.81877 60.0007C5.74168 59.7644 4.0501 58.8261 2.53466 57.094C2.23223 61.052 6.91482 64.4455 10.9394 63.4754C11.3648 62.6535 11.727 61.8316 12.1923 61.0872C12.6542 60.3464 13.2225 59.6762 13.7443 58.9777V58.9742Z" fill="black"/>
<path d="M3.60477 49.5944C2.7972 47.9435 1.97301 46.342 1.95307 44.4829C1.93313 42.6415 2.73738 41.1035 3.83741 39.5443C-0.443059 41.1952 -1.34369 48.4973 2.15912 51.6474C2.63768 50.9701 3.1096 50.2964 3.60477 49.5979V49.5944Z" fill="black"/>
<path d="M50.8395 32.4363C50.9957 32.3234 50.9192 32.341 51.0654 32.2246C51.8032 31.3321 52.5776 30.5913 53.0528 29.6848C54.0565 27.7658 55.4091 26.1748 56.8248 24.605C58.1973 23.0882 59.1777 21.3032 59.5333 19.2079C59.7593 17.8603 59.8657 16.4987 59.2874 15.1653C57.4097 15.3381 55.5918 15.578 53.764 15.6591C50.8727 15.7861 48.0611 16.3435 45.2629 17.0243C44.236 17.2747 43.4882 17.8603 42.9665 18.8057C42.1257 20.3261 41.7534 21.9735 41.6504 23.7161C41.6072 24.4675 41.8 25.0178 42.4513 25.4481C43.455 26.1078 44.4188 26.8345 45.3692 27.5753C45.8943 27.9809 46.4427 28.0092 46.9811 27.7869C48.2007 27.2825 49.437 26.7886 50.5969 26.1607C51.7035 25.561 52.7271 24.7991 53.7839 24.1077C53.7972 24.3581 53.7042 24.5027 53.5879 24.6227C51.6902 26.5981 49.4403 27.9527 46.8614 28.7535C45.9342 29.0427 45.1732 28.9193 44.3589 28.2773C42.9598 27.1766 41.5075 26.136 40.002 25.2012C36.2633 22.8871 32.2387 21.5043 27.8851 21.3456C27.0111 21.3138 26.1171 21.2538 25.2929 21.7018C25.8811 22.8589 26.3929 23.3774 27.9017 24.4287C28.8489 25.0883 29.8758 25.6598 30.7 26.4606C32.3085 28.0233 34.1463 29.0145 36.24 29.6601C39.4736 30.6548 42.7072 31.6249 46.0339 32.2246C47.1871 32.4327 49.2476 32.7996 50.1947 33.4381C50.2014 33.4346 50.4938 33.6462 50.5038 33.6427" fill="black"/>
<path d="M45.0801 15.6203C43.0529 14.2869 41.0157 13.4861 38.8721 13.0099C36.9313 12.576 35.0004 12.1386 33.1825 11.1156C31.8831 13.0699 31.2749 15.1935 31.265 17.504C31.265 17.9273 31.3447 18.4494 31.5873 18.7599C32.3883 19.7864 33.1692 20.8235 34.4853 21.275C35.9675 21.783 37.3999 22.4568 38.8488 23.0741C39.3008 23.2681 39.7295 23.5256 40.2214 23.7831C40.9492 20.379 41.3048 16.929 45.0801 15.6203Z" fill="black"/>
<path d="M35.8911 34.5105C39.2842 34.5916 42.5211 33.7203 45.7448 32.8067C45.8345 32.782 45.8943 32.655 46.014 32.528C45.1266 32.4504 44.3191 32.4645 43.5447 32.2987C40.7631 31.7025 37.9914 31.0535 35.2197 30.4114C33.6644 30.0516 32.3085 29.272 31.0722 28.2279C30.5571 27.794 30.0387 27.3495 29.4704 26.9967C28.1244 26.1642 26.7153 25.5152 24.9307 25.6668C25.6751 26.9121 26.3929 28.0021 27.0011 29.1521C28.9419 32.8208 32.0061 34.4152 35.8877 34.5105H35.8911Z" fill="black"/>
<path d="M53.199 11.3696C52.5909 12.4067 52.4679 13.3168 53.1824 14.4033C55.11 14.3433 57.0807 14.2798 59.1943 14.2128C60.3808 10.1561 59.7726 6.51916 57.5061 3.16444C57.084 2.54006 56.416 2.07794 55.8212 1.59467C55.5985 1.41476 55.2562 1.39359 54.8408 1.25955C55.758 5.0023 54.9936 8.31117 53.1957 11.3696H53.199Z" fill="black"/>
<path d="M38.4268 6.40275C40.4042 7.14707 42.3516 7.88081 44.5151 8.69568C45.0701 7.97958 45.685 7.24584 46.2267 6.45919C46.4294 6.16288 46.6321 5.69018 46.5424 5.38681C46.1801 4.13452 45.5288 2.981 44.3855 2.38837C41.3879 0.843292 38.2473 3.04803 38.4301 6.40628L38.4268 6.40275Z" fill="black"/>
<path d="M47.1406 15.2887C48.666 15.0171 50.1814 14.7137 51.7501 14.4068C51.6072 13.3591 51.1818 12.5196 50.2845 11.9975C48.4998 10.9604 46.549 10.5618 44.5517 10.4912C43.2124 10.4454 42.355 11.2179 42.0758 12.3785C43.568 13.2956 45.0303 14.2022 46.4992 15.0912C46.6886 15.2041 46.9412 15.3169 47.1373 15.2852L47.1406 15.2887Z" fill="black"/>
<path d="M26.1503 19.3736C26.2567 19.6206 26.6256 19.864 26.8948 19.8993C28.2308 20.0792 29.5734 20.192 31.1952 20.3578C28.7824 17.3453 26.8549 14.3398 27.4863 10.2372C27.1274 10.4559 26.8682 10.5547 26.6854 10.7381C25.8479 11.5742 25.3394 12.6113 25.1567 13.8036C24.8576 15.7685 25.3926 17.6028 26.1537 19.3736H26.1503Z" fill="black"/>
<path d="M29.9988 16.5269C30.4707 12.89 31.8765 10.0608 34.3789 7.84906C33.0629 6.8437 31.6006 6.71671 30.1716 6.45919C28.1809 9.75042 27.6857 12.9499 30.0021 16.5234L29.9988 16.5269Z" fill="black"/>
<path d="M51.421 11.2955C52.0658 10.6852 52.2585 10.0256 52.1887 9.24951C52.0226 7.33756 51.3812 5.62669 50.1449 4.17685C49.8558 3.8382 49.4769 3.57716 49.2675 3.39373C48.1176 5.44678 47.0475 7.35167 45.9408 9.32711C47.8252 9.72926 49.8092 9.97971 51.4177 11.2955H51.421Z" fill="black"/>
<path d="M33.9403 6.00061C34.914 6.46625 35.901 6.68496 37.0276 6.37453C37.5295 3.33376 38.8987 1.0867 42.1921 0.681024C38.6195 -0.641817 34.7013 1.2666 33.4451 4.83298C33.2357 5.42914 33.4251 5.75015 33.9403 5.99708V6.00061Z" fill="black"/>
<path d="M40.4773 11.994C41.2815 11.1403 42.026 10.3501 42.8834 9.43647C41.2716 8.72742 39.6963 7.97958 37.905 7.89844C36.26 7.82437 35.0104 8.50166 34.0433 9.85272C35.5056 10.9639 38.1277 11.8141 40.4773 11.994Z" fill="black"/>
<path d="M53.425 7.969C54.0099 6.48036 54.2293 4.98819 54.0664 3.45723C54.0166 2.99159 53.9003 2.42717 53.6111 2.10969C51.78 0.0989739 48.1708 -0.825251 45.5288 0.924427C49.9987 1.16783 52.2153 3.9405 53.425 7.969Z" fill="black"/>
<path d="M46.5324 2.24021C46.4859 2.3284 46.4394 2.41659 46.3895 2.50478C46.7119 3.02333 47.0342 3.53836 47.443 4.20154C47.7487 3.60891 47.9581 3.19971 48.1741 2.7764L46.5291 2.24374L46.5324 2.24021Z" fill="black"/>
</svg>
