<svg width="77" height="75" viewBox="0 0 77 75" fill="none" xmlns="http://www.w3.org/2000/svg">
<path d="M20.8271 40.1814C22.8003 39.1991 24.5402 39.3983 26.2664 39.4635C27.2856 39.4979 28.3014 39.5288 29.3138 39.5941C29.88 39.6284 30.4016 39.5631 30.8889 39.4189C30.9061 39.4154 30.9232 39.412 30.9404 39.4051C31.3659 39.2712 31.764 39.072 32.1312 38.8109C32.1758 38.78 32.217 38.7491 32.2582 38.7182C32.5636 38.4949 32.8519 38.2304 33.1264 37.9316C35.261 35.6063 36.8018 32.9237 37.9961 30.0144C38.2466 29.3961 38.1745 28.9153 37.8725 28.3313C35.5527 23.7631 30.2678 23.7596 27.09 24.9172C26.1669 25.2503 25.8957 26.0163 25.7688 26.8853C25.3123 30.0007 24.348 32.9443 22.8724 35.7265C22.3096 36.7878 21.812 37.8767 21.2938 38.9586C21.1668 39.2162 21.0844 39.5013 20.8271 40.1814Z" fill="black"/>
<path d="M24.197 26.7376C24.1284 27.3902 24.0426 28.0428 23.9637 28.692C23.7543 28.6851 23.545 28.6783 23.3357 28.6714C19.8456 22.8941 17.1174 16.9003 18.0336 9.86585C21.8463 8.83541 26.534 10.5219 28.497 13.5548C28.624 13.7541 28.7201 13.9842 28.775 14.2143C29.4339 16.9312 30.0859 19.6516 30.7517 22.4372C29.6844 22.633 28.624 22.7532 27.6048 23.0314C25.7242 23.5467 24.4167 24.6561 24.1936 26.7342L24.197 26.7376Z" fill="black"/>
<path d="M7.08639 37.1897C8.40074 36.6195 9.66705 35.9154 10.8922 35.17C12.9169 33.9369 15.151 33.6244 17.4434 33.5145C17.7213 33.5007 18.0371 33.5866 18.2841 33.7206C19.2691 34.2529 20.2334 34.8231 21.3006 35.4311C20.1201 37.9041 18.9877 40.2776 17.8243 42.7197C16.7708 42.7884 15.7653 42.9052 14.7563 42.9121C11.6128 42.9327 8.51056 42.6613 5.64506 41.2256C4.01155 40.4081 2.50845 39.412 1.56129 37.4267C3.61004 37.9557 5.4014 37.9213 7.08981 37.1897H7.08639Z" fill="black"/>
<path d="M37.9583 17.261C38.7442 19.8611 39.0118 22.5471 38.8059 25.2641C38.7785 25.6213 38.6378 25.9682 38.4971 26.5246C37.2823 24.584 35.7105 23.5192 33.7922 23.0349C32.8965 22.8116 32.4847 22.2861 32.2959 21.4961C31.6336 18.7002 30.9061 15.9145 30.3879 13.0946C30.1202 11.6451 30.1408 10.1166 30.23 8.63619C30.2918 7.60575 30.4188 6.48944 31.4037 5.5277C31.8876 6.29023 32.3611 6.85697 32.6391 7.50958C33.6377 9.83838 34.9693 11.9576 36.4037 14.0391C37.0729 15.0112 37.6117 16.1275 37.9549 17.2575L37.9583 17.261Z" fill="black"/>
<path d="M25.0412 8.6568C22.1517 7.45462 19.3308 7.50958 16.3315 9.06555C16.3212 11.5558 16.3109 14.1078 16.2972 16.708C15.7138 17.1339 15.0926 17.5839 14.3274 18.1437C12.6664 15.6432 12.2958 13.0843 12.735 10.4051C13.1022 8.16906 13.6101 5.95361 14.0459 3.76908C20.2608 2.07572 24.2416 5.4487 25.0378 8.6568H25.0412Z" fill="black"/>
<path d="M10.2436 32.8241C6.88391 30.3682 4.42336 27.3318 4.16598 22.9559C4.14539 22.5815 4.26893 22.2002 4.34785 21.6987C6.93882 23.4711 9.67049 24.1787 12.2683 24.1409C13.5449 26.875 14.7014 29.348 15.8785 31.8589C14.396 32.247 12.91 32.6661 11.4069 33.0061C11.0466 33.0885 10.5318 33.0336 10.2436 32.8241Z" fill="black"/>
<path d="M12.5429 22.0079C12.5017 22.1144 12.4227 22.2037 12.3026 22.3891C9.67048 22.6364 7.28886 21.8945 5.2058 20.2012C4.91753 19.9676 4.6876 19.5451 4.61897 19.1776C3.84682 14.9768 6.46181 11.5008 10.8887 10.9306C10.9128 11.4527 10.8682 11.9851 10.9711 12.4866C11.2868 14.0563 11.3417 15.7909 12.0933 17.127C13.0336 18.8066 13.2258 20.3008 12.5429 22.0079Z" fill="black"/>
<path d="M14.1112 22.5884C13.9293 20.6374 15.0171 19.3837 16.7467 18.367C17.0007 18.9681 17.2375 19.4352 17.3988 19.9264C18.5964 23.5879 20.3123 26.9849 22.6116 30.0728C23.044 30.6533 23.2705 31.1685 22.9273 31.8692C22.6425 32.4497 22.44 33.0748 22.0968 33.9335C21.2938 33.5866 20.6452 33.408 20.1098 33.0611C16.3418 30.5949 14.523 26.9746 14.1077 22.5884H14.1112Z" fill="black"/>
<path d="M9.38222 34.2736C7.76244 35.6337 6.04314 36.1764 4.16254 36.3619C3.29088 36.4478 2.73151 36.1558 2.24077 35.4036C-0.494324 31.2234 0.301842 27.0673 2.27852 22.8254C2.90652 27.7165 5.66222 31.2612 9.38222 34.2701V34.2736Z" fill="black"/>
<path d="M28.3838 10.7658C28.2602 10.7761 28.1367 10.7864 28.0131 10.7967C27.138 8.41293 26.1188 6.1494 24.1421 4.4423C22.138 2.71116 19.849 1.91085 17.0247 1.92459C20.2128 -1.59264 27.2307 -0.0263751 29.8731 4.49382C29.5265 5.56205 29.125 6.56501 28.8779 7.60919C28.6343 8.64306 28.5416 9.71472 28.3838 10.7692V10.7658Z" fill="black"/>
<path d="M5.53181 11.6932C3.90859 13.177 3.26686 15.1829 2.85848 17.4774C0.586678 12.1637 6.17011 5.35939 11.9526 6.02918C11.7776 7.02527 11.6025 8.0145 11.4172 9.0415C9.27583 9.64259 7.16875 10.1887 5.52837 11.6897L5.53181 11.6932Z" fill="black"/>
<path d="M19.7289 42.6545C21.5889 42.5411 23.4077 42.4312 25.23 42.3144C27.3954 42.1805 29.53 42.311 31.6405 42.8709C32.2513 43.0357 33.775 43.3036 34.3447 43.7193C34.3756 43.6918 34.4099 43.6609 34.4408 43.63C34.7805 43.3346 35.0997 43.022 35.3982 42.7129C35.5321 42.5755 35.659 42.4415 35.7826 42.3076C35.7963 42.2595 35.81 42.2148 35.8272 42.1702C36.0571 41.5794 36.2802 41.0367 36.4964 40.5215C36.9391 39.4738 37.3612 38.5258 37.7867 37.4439C38.1059 36.6127 38.4971 35.8055 38.9364 35.0292C41.6165 30.2892 43.5623 25.2847 44.3413 19.8749C45.1684 14.1456 42.5054 10.0479 37.7387 7.43401C36.6817 6.85697 35.5458 6.52036 34.1868 6.65088C34.3104 8.24463 35.0139 9.51207 35.7208 10.7692C36.263 11.731 36.8807 12.648 37.5019 13.5583C39.8458 16.9931 40.4497 20.8435 40.2816 24.9C40.086 29.7327 37.9583 33.7858 35.1786 37.571C34.5369 38.4331 33.7716 39.0823 32.8896 39.5254C32.8382 39.5494 32.7867 39.5735 32.7318 39.5941C32.3234 39.7864 31.8876 39.9307 31.4277 40.0234C31.4071 40.0268 31.3865 40.0337 31.3659 40.0337C30.8992 40.1368 30.4119 40.1883 29.9006 40.1917C27.9239 40.2055 25.9472 40.2226 23.9705 40.2639C23.2602 40.281 22.5464 40.4047 21.8326 40.4665C20.5834 40.573 19.8765 41.2222 19.7323 42.6545H19.7289Z" fill="black"/>
<path d="M58.8645 47.1678C58.837 47.2056 58.813 47.2399 58.7855 47.2777C58.7649 47.3018 58.7066 47.2983 58.6139 47.3018L58.8645 47.1678Z" fill="black"/>
<path d="M58.8645 47.1678C58.837 47.2056 58.813 47.2399 58.7855 47.2777C58.7649 47.3018 58.7066 47.2983 58.6139 47.3018L58.8645 47.1678Z" fill="black"/>
<path d="M35.3021 41.9744C35.6968 42.39 36.2356 43.5819 36.7229 44.0593C37.5156 44.839 38.4285 45.6771 39.4614 46.5461C45.4223 51.5678 52.2584 54.5629 57.6874 58.7603C57.9825 57.8844 58.2673 57.0016 58.559 56.1155C58.559 56.1086 58.559 56.1017 58.5659 56.0949C58.6139 55.9403 58.6654 55.7788 58.7169 55.6208C58.7478 55.5315 58.7341 55.4354 58.7443 55.3083C57.3373 54.3465 56.1259 53.1444 55.1307 51.6743C54.0978 50.1423 53.4972 48.4078 53.003 46.5908C52.931 46.3263 52.8521 46.0652 52.78 45.8008C52.3579 44.2276 51.7848 42.7197 50.3091 41.6446C50.5802 41.6893 50.8513 41.7065 51.1122 41.7752C53.209 42.3247 55.0312 43.3311 56.6476 44.6638C57.2653 45.1722 57.7286 45.7664 58.0923 46.4156C58.3257 46.8243 58.5179 47.2605 58.6791 47.7105C58.8061 48.0643 58.9159 48.4249 59.012 48.7959C59.2969 49.8847 59.5268 50.977 59.8116 52.1929C59.9695 51.9216 60.1033 51.7807 60.1376 51.6193C60.244 51.2037 60.347 50.7881 60.4534 50.3656C60.5117 50.1389 60.57 49.9122 60.6249 49.6821C60.9681 48.3219 61.3044 46.948 61.6304 45.5672C61.7094 45.2512 61.6648 44.8974 61.6133 44.578C61.2427 42.2801 60.8343 39.941 60.4636 37.5504C60.3916 37.0729 60.1342 36.8084 59.8253 36.5233C57.4163 34.277 55.5151 31.5257 54.1836 28.2077C53.7889 27.2391 53.5281 26.2155 53.6345 24.9618C54.4856 25.6144 55.2508 26.109 55.8994 26.7239C57.2927 28.0428 58.6311 29.379 59.9249 30.7151C61.3559 32.1921 61.9736 34.0159 61.7952 36.0734C61.6133 38.0931 62.1521 39.9753 62.2619 41.8885C62.3305 41.8954 62.4026 41.9023 62.4712 41.9057C62.6256 41.229 62.8418 40.5489 62.9105 39.8585C63.1301 37.7702 63.288 35.644 63.487 33.4973C63.6277 31.9448 63.2605 30.5193 62.5467 29.1591C62.3065 28.7023 62.1143 28.2043 61.8398 27.7715C60.6764 25.9854 60.9647 24.2096 61.8912 22.4372C62.8247 20.6546 64.0258 19.0986 65.3813 17.6869C65.848 17.1992 66.3045 16.7011 66.8673 16.1C67.08 16.6324 67.2654 17.0412 67.4095 17.4739C68.0958 19.4936 68.6278 21.5133 68.6518 23.6463C68.6861 26.3254 67.7492 28.4172 65.776 29.9354C65.6353 30.0419 65.5014 30.1587 65.3607 30.2651C64.2489 31.1445 64.1562 31.4467 64.5371 33.0267C66.1363 31.6081 67.8385 30.4369 69.8597 29.7087C70.0176 31.1204 69.9078 32.4531 69.6779 33.7789C69.2832 36.0803 68.1267 37.7633 66.229 38.8693C64.7396 39.7452 63.7032 40.8409 63.4355 42.7369C63.1782 44.602 62.5879 46.4121 62.1006 48.4181C63.8954 47.4975 65.5358 46.6594 67.2379 45.7801C67.2276 45.9828 67.2619 46.1889 67.2139 46.3881C67.0354 47.0785 66.8364 47.7586 66.6408 48.4421C66.6133 48.5452 66.5859 48.6482 66.5516 48.7547C66.3834 49.3558 66.1294 49.8916 65.8069 50.3793C65.3196 51.1144 64.6744 51.7361 63.9228 52.2891C63.137 52.8661 62.3751 53.4775 61.6236 54.0924C60.7176 54.8377 59.9729 55.6689 59.5405 56.72C59.5336 56.7372 59.5302 56.7509 59.5234 56.7681C59.4513 56.9501 59.3826 57.139 59.3312 57.3348C59.1321 58.0527 58.8782 58.7534 58.6071 59.4884C59.0155 59.8113 59.4135 60.1342 59.815 60.4605C62.6016 62.7343 65.2475 64.9807 67.8487 67.0965C70.323 69.1127 72.7493 71.0225 75.0726 72.8945C75.5667 73.2895 76.0197 73.7257 76.5208 74.1619C76.2496 74.4642 76.0334 74.7046 75.7692 75C75.4981 74.7802 75.251 74.6016 75.0245 74.4023C72.6498 72.314 70.1068 70.2462 67.3374 68.2472C67.1761 68.1304 67.0148 68.0274 66.8467 67.9277L64.2489 65.9012C63.9572 65.623 63.7856 65.4478 63.6071 65.3001C61.8604 63.8266 60.1033 62.2878 58.2296 60.7868C58.1472 60.7284 58.0683 60.6631 57.9894 60.6013C52.4574 55.6586 44.458 52.9486 37.9103 46.9926C37.2548 46.4121 36.5582 45.763 35.8272 45.0485C35.3776 44.6054 34.3687 43.7055 33.8951 43.204C34.2349 42.9086 35.0036 42.2801 35.3021 41.9709V41.9744ZM55.1994 46.4671C54.9694 46.1305 54.7361 45.7973 54.4924 45.4573C54.767 46.1305 55.0518 46.7762 55.3504 47.422C56.2769 49.4004 57.2996 51.269 58.3737 53.0654C57.7423 50.6953 56.6064 48.5417 55.1994 46.4671ZM56.699 28.9084C57.5604 31.1994 58.6139 33.3256 59.9489 35.2319C59.2076 32.9821 58.1884 30.8388 56.699 28.9084ZM64.3209 38.1824C64.8837 36.9802 65.4397 35.7952 66.0814 34.6651C66.5001 33.9301 66.9565 33.2191 67.4747 32.5458C67.5605 32.4291 67.6531 32.3054 67.7458 32.1886C67.4713 32.3569 67.1967 32.563 66.9359 32.7932C66.1432 33.4904 65.4362 34.4384 64.9592 35.4105C64.4616 36.4066 64.2008 37.4164 64.3209 38.1824ZM63.6003 29.1007C63.8885 28.2455 64.1768 27.3971 64.4651 26.5556C64.9215 25.2057 65.3813 23.8661 65.8343 22.5197C65.8927 22.3514 65.9476 22.1796 66.0093 22.0044C66.1466 21.5957 66.2873 21.187 66.4246 20.7782C66.3422 20.9087 66.2633 21.0496 66.1844 21.1801C66.0334 21.4377 65.8892 21.6884 65.7451 21.9392C65.5666 22.2449 65.3882 22.5506 65.22 22.8631C64.1871 24.7523 63.4081 26.7239 63.5968 29.1007H63.6003ZM61.4451 51.7327H61.452C61.5481 51.743 61.6064 51.7533 61.6304 51.7292C61.6648 51.6949 61.6956 51.664 61.7334 51.6296C62.0525 51.3033 62.3751 50.977 62.6977 50.6541C63.6243 49.7233 64.5577 48.789 65.4877 47.8513H65.4843C63.9812 48.6448 62.6428 49.5996 61.7368 51.0697C61.6853 51.1522 61.6339 51.2415 61.5824 51.3308C61.5206 51.4407 61.4589 51.554 61.4039 51.6708C61.3936 51.688 61.3868 51.7086 61.3731 51.7258C61.4005 51.7258 61.4245 51.7258 61.4451 51.7327Z" fill="black"/>
</svg>
